<svg xmlns="http://www.w3.org/2000/svg"><style>:root svg:not(:target){display:none}</style><svg viewBox="0 0 26 32" fill="none" id="alarm_clock"><path d="M5.53 0c-1.06 0-1.06 1.6 0 1.6h6.64v1.6c-6.8.44-12.17 6.27-12.17 13.38 0 4.04 1.74 7.68 4.49 10.13.48.43.54 1.18.1 1.65l-1.52 1.56c-.75.7.36 1.76 1.03 1l2-2.04c.34-.34.86-.42 1.3-.21a12.6 12.6 0 0 0 11.05.06c.42-.21.96-.13 1.3.21l1.93 1.99c.68.64 1.65-.32 1.04-1l-1.45-1.5c-.44-.45-.38-1.2.11-1.64a13.54 13.54 0 0 0 4.59-10.22c0-7.11-5.4-12.95-12.21-13.36v-1.62h6.63c1.06 0 1.06-1.59 0-1.59h-14.86Zm-4.1 16.57c0-6.57 5.17-11.89 11.55-11.89 6.37 0 11.54 5.32 11.54 11.9s-5.17 11.9-11.54 11.9c-6.37 0-11.55-5.32-11.55-11.9Zm10.75-8.14c0-1.1 1.65-1.1 1.65 0v8.69a.85.85 0 0 1-.85.85.8.8 0 0 1-.8-.8v-8.74Zm-4.97 2.63a1.16 1.16 0 0 0 0-2.31 1.16 1.16 0 0 0 0 2.3v.01Zm11.54 0a1.16 1.16 0 0 0 0-2.31 1.16 1.16 0 0 0 0 2.3v.01Zm-10.38 12.67c0 1.54-2.32 1.54-2.32 0s2.32-1.54 2.32 0Zm4.61 3.46a1.16 1.16 0 1 0 .22-2.3 1.16 1.16 0 0 0-.22 2.3Zm-8.08-10.45a1.16 1.16 0 1 1-2.3.23 1.16 1.16 0 0 1 2.3-.23Zm17.3 1.16a1.16 1.16 0 1 0 .23-2.3 1.16 1.16 0 0 0-.22 2.3Zm-2.3 5.84c0 1.53-2.31 1.53-2.31 0 0-1.55 2.31-1.55 2.31 0Z" fill="#fff"></path></svg><svg viewBox="0 0 25 30" fill="none" id="cutlery"><path fill-rule="evenodd" clip-rule="evenodd" d="M18.62.08a1 1 0 0 1 1.09.21c.9.91 2.1 2.88 3.06 5.92a42.6 42.6 0 0 1 1.73 12.79 1 1 0 0 1-1 1h-3.5v9a1 1 0 1 1-2 0v-28a1 1 0 0 1 .62-.92Zm1.38 17.92h2.5a39.62 39.62 0 0 0-1.64-11.19 22.4 22.4 0 0 0-.86-2.3v13.49Zm-14-18a1 1 0 0 1 1 1v28a1 1 0 1 1-2 0v-28a1 1 0 0 1 1-1Z" fill="#fff"></path><path fill-rule="evenodd" clip-rule="evenodd" d="M1.5 0a1 1 0 0 1 1 1v5.5c0 .56.2 1.32.7 1.92.48.56 1.31 1.08 2.8 1.08a1 1 0 1 1 0 2 5.41 5.41 0 0 1-4.33-1.8 5.07 5.07 0 0 1-1.17-3.2v-5.5a1 1 0 0 1 1-1Z" fill="#fff"></path><path fill-rule="evenodd" clip-rule="evenodd" d="M10.5 0a1 1 0 0 0-1 1v5.5c0 .56-.2 1.32-.7 1.92-.48.56-1.31 1.08-2.8 1.08a1 1 0 0 0 0 2 5.4 5.4 0 0 0 4.33-1.8 5.07 5.07 0 0 0 1.17-3.2v-5.5a1 1 0 0 0-1-1Z" fill="#fff"></path></svg><svg viewBox="0 0 78 81" fill="none" id="gift"><path d="M64.02 35.63h-49.99a3.18 3.18 0 0 1-3.18-3.16v-9.47a3.18 3.18 0 0 1 3.18-3.16h49.98a3.17 3.17 0 0 1 3.19 3.16v9.47a3.17 3.17 0 0 1-3.18 3.16Zm-49.99-13.37c-.4 0-.74.34-.74.74v9.47c0 .4.33.74.74.74h49.98c.41 0 .75-.33.75-.74v-9.47c0-.4-.34-.74-.75-.74h-49.98Z" fill="#fff"></path><path d="M57.04 68.08h-36.04a6.11 6.11 0 0 1-6.13-6.09v-27.57c0-.67.55-1.21 1.22-1.21.68 0 1.22.54 1.22 1.21v27.57a3.68 3.68 0 0 0 3.69 3.67h36.04a3.68 3.68 0 0 0 3.7-3.67v-27.57a1.22 1.22 0 0 1 2.44 0v27.57a6.11 6.11 0 0 1-6.14 6.1Z" fill="#fff"></path><path d="M39.02 68.08c-.67 0-1.22-.54-1.22-1.2v-32.46c0-.67.55-1.21 1.22-1.21.68 0 1.22.54 1.22 1.21v32.45c0 .67-.54 1.21-1.22 1.21Zm-15.21-45.82a7.81 7.81 0 0 1-3.17-10.6 7.9 7.9 0 0 1 10.66-3.16c5.82 3.13 8.96 11.86 9.09 12.23l-2.3.8c-.03-.08-2.96-8.22-7.95-10.9a5.45 5.45 0 0 0-7.36 2.17 5.4 5.4 0 0 0 2.2 7.33l-1.17 2.13Z" fill="#fff"></path><path d="m54.23 22.26-1.16-2.14a5.38 5.38 0 0 0-1.03-9.92 5.42 5.42 0 0 0-4.14.43c-4.98 2.68-7.91 10.82-7.94 10.9l-2.3-.8c.13-.37 3.27-9.1 9.08-12.23a7.86 7.86 0 0 1 11.29 9.1c-.6 2-1.95 3.66-3.8 4.66Zm7.72 29.6h-45.86c-.67 0-1.22-.55-1.22-1.21 0-.67.55-1.22 1.22-1.22h45.86a1.21 1.21 0 1 1 0 2.42Z" fill="#fff"></path></svg><svg viewBox="0 0 30 32" fill="none" id="leaf"><g clip-path="url(#leaf_0)"><path d="M27.78 2.77a.95.95 0 0 0-.92-.77c-4.94.03-16.95.92-21.8 8.38-2.51 3.88-2.73 8.91-.64 14.96l.07.13a25.93 25.93 0 0 0-1.04 3.32 1 1 0 0 0 .72 1.19l.2.02c.43 0 .82-.32.91-.79.02-.1 2.4-10.37 10.85-16.38.44-.3.55-.93.26-1.38a.9.9 0 0 0-1.3-.28c-4.78 3.4-7.73 8-9.47 11.65-1.24-4.57-.91-8.37.99-11.3 3.74-5.76 12.62-7.15 17.98-7.45-1.15 1.8-2.41 5.1-2.41 10.93 0 3.12-.83 5.52-2.47 7.14-2.62 2.6-6.88 2.83-10 2.58-.5-.04-.96.38-1 .93a.98.98 0 0 0 .87 1.07c.62.05 1.28.08 1.98.08 3.17 0 6.87-.66 9.43-3.2 2.03-2 3.06-4.9 3.06-8.6 0-9.1 3.22-11.1 3.23-11.1.4-.21.6-.68.5-1.13Z" fill="#fff"></path></g><defs><clipPath id="leaf_0"><path fill="#fff" d="M0 0h30v32h-30z"></path></clipPath></defs></svg><svg viewBox="0 0 26 29" fill="none" id="powder"><path d="M10.86 0c-1.63 0-2.9 1.37-2.9 3.1s1.27 3.1 2.9 3.1 2.9-1.37 2.9-3.1-1.27-3.1-2.9-3.1Zm0 1.19c1 0 1.72.84 1.72 1.91 0 1-.79 1.91-1.72 1.91-1 0-1.72-.84-1.72-1.91 0-1 .78-1.91 1.72-1.91Zm-10.86 23.7c0 1.19.4 2.19 1.36 3 1 .87 2.17.8 2.17.8h19c.78 0 1.82-.39 2.63-1.47.84-1 .79-2.37.79-2.37v-17.32c0-.44-.11-.6-.74-.6-.64 0-.7.27-.7.6v17.31a2.5 2.5 0 0 1-.73 1.74c-.74.63-1.45.54-1.45.54s-18.1 0-19-.02c-.35-.07-.91-.2-1.46-.92-.5-.72-.4-1.64-.4-1.64v-17.32c0-.46-.24-.64-.73-.64s-.74.18-.74.59v17.72Zm16.3-16.41c-1.1.24-2.18.38-4.26 2.37-2.08 2-3.62 1.91-5.16 1.82-1.54-.09-3.17-1.55-3.44-1.91-.34-.36-.9-.12-1.09.12-.15.23-.15.64.11 1 1.27 1.18 2.45 2.1 4.7 2.28a7.45 7.45 0 0 0 5.9-2.28c1.44-1.46 2.16-1.73 3.25-1.91a6.27 6.27 0 0 1 5.07 1.27c1 1.1 1.26.79 1.54.48.54-.72-.23-1.28-1.09-1.92a7.19 7.19 0 0 0-5.52-1.28l-.02-.04Zm-9.06 7.2c-1.18 0-2.08 1-2.08 2.28 0 1.28.9 2.28 2.08 2.28 1.18 0 2.08-1 2.08-2.28 0-1.28-.9-2.28-2.08-2.28Zm11.77.79c-1.54 0-2.8 1.36-2.8 3 0 1.65 1.26 3.01 2.8 3.01 1.54 0 2.8-1.36 2.8-3 0-1.65-1.26-3.01-2.8-3.01Zm0 1.45c.8 0 1.44.7 1.44 1.55 0 .87-.65 1.55-1.44 1.55-.8 0-1.45-.7-1.45-1.55 0-.86.65-1.55 1.45-1.55Z" fill="#fff"></path></svg></svg>